<svg width="128" height="128" viewBox="0 0 128 128" fill="none" xmlns="http://www.w3.org/2000/svg">
  <rect width="128" height="128" rx="32" fill="#0F172A"/>
  <path d="M64 22L96 41V68C96 88.9868 81.6731 108.114 64 113C46.3269 108.114 32 88.9868 32 68V41L64 22Z" fill="#3543BB"/>
  <path d="M64 39C54.6112 39 47 46.6112 47 56C47 65.3888 54.6112 73 64 73C73.3888 73 81 65.3888 81 56C81 46.6112 73.3888 39 64 39Z" fill="#06B6D4"/>
  <path d="M55 82H73C77.4183 82 81 85.5817 81 90V95H47V90C47 85.5817 50.5817 82 55 82Z" fill="white"/>
</svg>

